# xmcd
#
# Track frame offsets:
#	152
#	13515
#	24172
#	34657
#	48582
#	60582
#	76527
#	88010
#	100372
#	111305
#
# Disc length: 1689 seconds
#
# Revision: 0
# Processed by: cddbd v1.4PL0 Copyright (c) Steve Scherf et al.
# Submitted via: EasyCDDAExtractor 4.5.2.1
#
DISCID=6d06970a
DTITLE=Ben Colder - Shakey Breaky Car
DYEAR=1900
DGENRE=Country
TTITLE0=Shakey Breaky Car
TTITLE1=Purple People Eater
TTITLE2=Hello Wall No. 2
TTITLE3=Fifteen Beers Ago
TTITLE4=That's My Pa
TTITLE5=Almost Persuaded No. 2
TTITLE6=Runnung Bare
TTITLE7=Folsom Prison Blues
TTITLE8=Easy Loving
TTITLE9=Detroit City No. 2
EXTD=
EXTT0=
EXTT1=
EXTT2=
EXTT3=
EXTT4=
EXTT5=
EXTT6=
EXTT7=
EXTT8=
EXTT9=
PLAYORDER=
